Inverse Dynamics Generalized Forces
version=1
nRows=9
nColumns=34
inDegrees=no
endheader 
time	pelvis_tilt_moment	pelvis_list_moment	pelvis_rotation_moment	pelvis_tx_force	pelvis_ty_force	pelvis_tz_force	hip_flexion_l_moment	hip_adduction_l_moment	hip_rotation_l_moment	hip_flexion_r_moment	hip_adduction_r_moment	hip_rotation_r_moment	knee_angle_l_moment	knee_angle_r_moment	ankle_angle_l_moment	ankle_angle_r_moment	subtalar_angle_l_moment	subtalar_angle_r_moment	mtp_angle_l_moment	mtp_angle_r_moment	lumbar_extension_moment	lumbar_bending_moment	lumbar_rotation_moment	arm_flex_l_moment	arm_add_l_moment	arm_rot_l_moment	arm_flex_r_moment	arm_add_r_moment	arm_rot_r_moment	elbow_flex_l_moment	elbow_flex_r_moment	pro_sup_l_moment	pro_sup_r_moment	
          6.89000000	         -0.00000003	         -0.00000024	         -0.00000005	          0.00000004	          0.00000007	         -0.00000050	        182.88757017	        -75.74596751	         21.22058422	        -72.45993497	        -13.32729083	         12.57166506	        -44.78416423	         37.05747743	          9.53698475	         -0.63075450	         -5.00549623	         -1.80378392	         -0.58206790	          0.09081562	       -166.05105056	        -86.58753717	         -8.70952862	       -133.45316302	         66.39635376	        -61.03644049	         71.79762883	         48.83462170	         33.15196269	        -15.30172446	          9.43468662	         -8.94535156	          2.08490717	
          6.90000000	         -0.00000005	         -0.00000018	         -0.00000009	         -0.00000007	         -0.00000018	         -0.00000050	        181.16824674	        -72.45891616	         22.37051404	        -68.96881969	         -9.15828625	          8.05408395	        -47.82546298	         42.71258154	          9.09723487	         -1.03177921	         -5.07164189	         -1.37264317	         -0.53163628	          0.08505876	       -174.12577886	        -65.88462828	        -21.63837918	       -137.15330712	         12.33171840	         -1.63997604	         43.61932360	          1.78516175	        -12.64393199	        -49.35426711	         10.30778887	          3.27510215	          0.14273044	
          6.91000000	          0.00000004	         -0.00000022	          0.00000006	          0.00000028	          0.00000040	          0.00000009	        167.52403657	        -75.59246816	         21.66478823	       -104.82785829	        -14.20498084	         10.92037907	        -49.85627985	         49.48734140	          7.13555246	         -2.54623322	         -4.86078169	         -1.23229254	         -0.35791111	          0.17730320	        -78.90105574	        -42.59906006	         13.55069665	        -65.78099265	        -28.45454048	         38.61560059	         -1.24992072	        -35.77194168	        -46.83127299	        -75.67690920	          4.55639712	          9.03434107	         -3.27410075	
          6.92000000	          0.00000043	         -0.00000031	         -0.00000004	         -0.00000002	          0.00000009	         -0.00000074	        159.71178198	        -66.11086008	         22.55291129	        -92.71658841	        -12.98613775	          8.20292284	        -47.98381053	         49.79797572	          6.22917370	         -2.80580774	         -4.20838152	         -1.38288985	         -0.25130970	          0.24794639	        -84.77912147	        -22.89894593	         22.55751998	        -87.57534119	         16.61464204	         40.75492379	        -26.41405050	         -8.76940270	        -72.42852072	        -94.32307221	         27.24019586	          5.54402616	         -4.69468304	
          6.93000000	          0.00000048	         -0.00000030	         -0.00000025	         -0.00000052	          0.00000011	         -0.00000058	        145.84553375	        -59.51660363	         21.22312250	       -111.29993057	         -3.18496334	          6.81570577	        -49.28118028	         54.96589476	          5.09966839	         -4.25852945	         -3.47054190	         -1.01360878	         -0.17355130	          0.36930146	        -24.25457221	        -29.87035963	         52.73357288	        -27.84814554	         50.78504826	        -10.46324586	        -25.26614775	         19.89004026	        -16.61464382	        -31.60171183	         18.10249948	         -1.43311469	         -1.71174970	
          6.94000000	          0.00000014	         -0.00000007	          0.00000000	         -0.00000015	          0.00000024	          0.00000013	        121.18166852	        -57.06875157	         17.23684744	       -132.91328226	        -28.54503846	          9.41602583	        -50.02932721	         54.58714050	          4.33404846	         -3.32357485	         -3.40898613	         -0.39845041	         -0.13439644	          0.20930229	         28.59489919	        -10.15857708	         82.88712344	         16.58061042	         75.83810327	        -42.67901530	         -8.69079656	         42.41235956	         25.05204173	         14.47570383	          5.45384991	         -3.20714470	          0.22362108	
          6.95000000	          0.00000003	          0.00000042	          0.00000003	          0.00000001	         -0.00000032	          0.00000026	        109.58594125	        -46.88516984	         15.49242016	       -117.98079776	        -18.18577739	          3.47850754	        -50.04070061	         52.81446217	          4.51660280	         -2.45990505	         -3.59760760	          0.67154485	         -0.15664045	          0.07044558	          4.38447016	         -7.51847514	         71.26351142	        -25.28647603	         94.34461144	          7.96724850	         13.79517191	         58.54630448	         56.08902869	          4.00913162	          7.00022231	          4.18986811	          0.89522147	
          6.96000000	         -0.00000026	          0.00000033	          0.00000005	         -0.00000013	          0.00000016	          0.00000152	        102.80463324	        -39.67414099	         14.85629581	       -107.64113929	        -42.07517082	         11.27119427	        -54.57403984	         44.29647034	          5.01541704	         -1.22764390	         -3.96823857	          0.05851181	         -0.19379955	         -0.02714361	        -10.50059406	         31.59994589	         53.04888610	        -56.29300133	        107.96482182	         43.03806781	         -9.42607644	         55.00385720	         61.23832525	        -35.07535528	         -3.20944813	          5.52655412	          0.69149626	
          6.97000000	          0.00000008	          0.00000021	         -0.00000006	          0.00000007	         -0.00000017	         -0.00000082	        102.06549247	        -34.41021076	         15.49741102	        -72.70605907	        -37.58757518	          5.53725496	        -52.32244637	         33.76110412	          5.06057145	         -0.31942608	         -3.63052850	         -0.30155137	         -0.20530464	         -0.04677459	        -60.08179619	         38.38458537	         26.01873764	        -79.03326364	        118.17747910	         65.64869805	        -44.07806877	         38.44922884	         29.13035627	        -55.19984381	          7.04176197	          9.59953819	         -0.36788884	
